<?xml version="1.0" encoding="UTF-8"?>
<svg version="1.1" xmlns="http://www.w3.org/2000/svg" width="493" height="506">
<path d="M0 0 C1.571348 0.48133987 3.1429564 0.96183064 4.71484375 1.44140625 C17.35137105 5.38349585 30.15822045 10.31066772 41.1640625 17.796875 C42.82393382 18.88462046 44.55026219 19.86925416 46.28125 20.83984375 C49.98549471 22.94077325 53.43042018 25.31350059 56.875 27.8125 C57.48867432 28.25625977 58.10234863 28.70001953 58.73461914 29.15722656 C60.49307199 30.43366108 62.24666825 31.71654637 64 33 C65.17755859 33.84884766 65.17755859 33.84884766 66.37890625 34.71484375 C87.46243139 50.43747256 104.25858754 70.76342458 118 93 C118.60714844 93.97582031 119.21429688 94.95164062 119.83984375 95.95703125 C123.31279941 101.71378996 126.36368376 107.62113031 129.25 113.6875 C129.57943604 114.37626221 129.90887207 115.06502441 130.24829102 115.7746582 C132.56241536 120.7419489 134.34947081 125.77892686 136 131 C136.36182373 132.09622681 136.36182373 132.09622681 136.73095703 133.21459961 C151.77524601 178.9430322 153.16282058 236.95186692 131.09765625 280.96875 C129.95872869 283.06842196 128.79121365 285.15322171 127.578125 287.2109375 C126.12332851 289.78203822 124.99525829 292.37603255 123.86181641 295.09912109 C122.20285002 298.75824638 120.11342332 302.17530431 118.0625 305.625 C117.63259766 306.36234375 117.20269531 307.0996875 116.75976562 307.859375 C114.41357928 311.83258284 111.93627135 315.42901949 109 319 C108.36578125 319.96292969 107.7315625 320.92585938 107.078125 321.91796875 C104.82839049 325.2545111 102.3710104 328.26682073 99.75 331.3125 C99.26619873 331.87791504 98.78239746 332.44333008 98.28393555 333.02587891 C97.3107507 334.16059022 96.33577126 335.2937652 95.35888672 336.42529297 C94.16251614 337.81167282 92.97326784 339.20419204 91.78515625 340.59765625 C87.51452953 345.52790453 82.99704112 349.81914227 78 354 C76.92608615 354.9233206 75.8532535 355.8478996 74.78125 356.7734375 C73.62527704 357.76594776 72.46902623 358.7581345 71.3125 359.75 C70.4922937 360.45842041 70.4922937 360.45842041 69.65551758 361.18115234 C61.64331063 368 61.64331063 368 58 368 C58 368.66 58 369.32 58 370 C56.34204102 371.29345703 56.34204102 371.29345703 54.00390625 372.7578125 C53.14369873 373.29720459 52.28349121 373.83659668 51.3972168 374.39233398 C50.46176025 374.96411377 49.52630371 375.53589355 48.5625 376.125 C47.13127808 377.00297241 47.13127808 377.00297241 45.67114258 377.89868164 C32.41327931 385.9073284 18.60157362 391.89633853 4 397 C3.34628418 397.23952393 2.69256836 397.47904785 2.01904297 397.72583008 C-44.17404773 414.07901381 -96.84486624 410.81664517 -142 393 C-143.0003125 392.62488281 -144.000625 392.24976563 -145.03125 391.86328125 C-160.49359802 385.81002688 -176.09657276 377.48780903 -189 367 C-189.76699219 366.39800781 -190.53398437 365.79601562 -191.32421875 365.17578125 C-196.60361705 361.01334656 -201.66717952 356.68443105 -206.62890625 352.1484375 C-208.73763367 350.23772896 -210.88780105 348.39699852 -213.0625 346.5625 C-223.16010117 337.74230621 -232.57903706 326.77176538 -239 315 C-240.05592503 313.5085146 -241.12512083 312.02638735 -242.203125 310.55078125 C-246.20397855 304.87213372 -249.45364084 298.92188022 -252.625 292.75 C-253.19476563 291.6460791 -253.76453125 290.5421582 -254.3515625 289.40478516 C-258.25543879 281.72693587 -261.44833286 274.23118431 -264 266 C-264.4021875 264.948125 -264.804375 263.89625 -265.21875 262.8125 C-276.29899705 233.08500793 -278.16306141 197.17271208 -273 166 C-272.78996338 164.68612305 -272.78996338 164.68612305 -272.57568359 163.34570312 C-266.99713406 129.770134 -252.59265244 97.38475546 -231 71 C-230.2575 70.071875 -229.515 69.14375 -228.75 68.1875 C-227.88375 67.1046875 -227.88375 67.1046875 -227 66 C-226.46375 65.236875 -225.9275 64.47375 -225.375 63.6875 C-224.92125 63.130625 -224.4675 62.57375 -224 62 C-223.34 62 -222.68 62 -222 62 C-221.773125 61.443125 -221.54625 60.88625 -221.3125 60.3125 C-219.61427198 57.32038397 -217.49235804 55.38399465 -215 53 C-213.72827424 51.70921197 -212.45751512 50.41747118 -211.1875 49.125 C-205.81615537 43.76378998 -200.53472487 38.88551208 -194 35 C-192.948125 33.88625 -192.948125 33.88625 -191.875 32.75 C-185.84957367 26.98654873 -178.23310295 23.07683984 -171 19 C-169.48671933 18.06682749 -167.9737259 17.13318909 -166.4609375 16.19921875 C-161.19509545 13.03664446 -155.78735666 10.38919117 -150.1875 7.875 C-149.21901123 7.43905518 -148.25052246 7.00311035 -147.25268555 6.55395508 C-140.28231911 3.46580328 -133.38223467 0.92656183 -126 -1 C-124.59953012 -1.40896574 -123.19984504 -1.82062462 -121.80078125 -2.234375 C-109.33945894 -5.82750889 -96.87793137 -7.63171979 -84 -9 C-82.7934375 -9.144375 -81.586875 -9.28875 -80.34375 -9.4375 C-53.39888459 -12.10530846 -25.64250234 -8.20255713 0 0 Z " fill="#F6EDFD" transform="translate(310,56)"/>
<path d="M0 0 C2 2 2 2 2.375 4.25 C1.7453758 8.86724413 -0.72619538 11.93849615 -4.25 14.875 C-4.8275 15.24625 -5.405 15.6175 -6 16 C-5.01 16.556875 -4.02 17.11375 -3 17.6875 C0 20 0 20 0.75 22.5 C-0.37497568 26.24991893 -2.6605953 27.16660134 -6 29 C-9.03685792 30.01228597 -11.26147256 30.09700261 -14.4375 30.1875 C-18.37461932 30.41139198 -18.37461932 30.41139198 -21.609375 32.3984375 C-22.84426086 34.21081572 -22.84426086 34.21081572 -24 37 C-23.24074219 36.97679687 -22.48148438 36.95359375 -21.69921875 36.9296875 C-20.70535156 36.91164062 -19.71148437 36.89359375 -18.6875 36.875 C-17.70136719 36.85179687 -16.71523438 36.82859375 -15.69921875 36.8046875 C-13 37 -13 37 -10 39 C-9.375 42.3125 -9.375 42.3125 -10 46 C-13.62966347 49.80388732 -17.86350474 51.93348396 -23.13671875 52.09765625 C-24.30847656 52.08605469 -25.48023438 52.07445312 -26.6875 52.0625 C-28.45673828 52.04896484 -28.45673828 52.04896484 -30.26171875 52.03515625 C-31.16535156 52.02355469 -32.06898438 52.01195312 -33 52 C-35.475 56.455 -35.475 56.455 -38 61 C-37.154375 60.67 -36.30875 60.34 -35.4375 60 C-30.85779278 58.66772154 -27.0204769 58.1192793 -22.5625 60.0625 C-21 62 -21 62 -20.5 65.4375 C-21 69 -21 69 -22.5 71.1875 C-29.89662775 76.55005512 -35.78195532 77.86507804 -45 77 C-45.66 76.67 -46.32 76.34 -47 76 C-47.1546875 76.9590625 -47.1546875 76.9590625 -47.3125 77.9375 C-48.23903073 82.06477326 -49.61660629 86.00642949 -51 90 C-50.401875 89.525625 -49.80375 89.05125 -49.1875 88.5625 C-45.55413953 85.96724252 -42.65122775 85.88645614 -38.3125 85.9375 C-37.31863281 85.94652344 -36.32476562 85.95554687 -35.30078125 85.96484375 C-34.54152344 85.97644531 -33.78226563 85.98804688 -33 86 C-33 86.66 -33 87.32 -33 88 C-32.01 88.33 -31.02 88.66 -30 89 C-29.46227833 92.68723428 -29.3224414 94.85155948 -31.2421875 98.10546875 C-36.28135429 104.29412289 -41.55005268 107.41302837 -49.46484375 108.45703125 C-52.63787473 108.7154214 -55.81928385 108.86607511 -59 109 C-60.32 113.29 -61.64 117.58 -63 122 C-62.67 122.33 -62.34 122.66 -62 123 C-61.05125 122.175 -60.1025 121.35 -59.125 120.5 C-55.21400168 117.69618857 -52.05193951 117.47178659 -47.33203125 117.53125 C-44.48512623 118.10349221 -43.05870685 118.95992398 -41 121 C-40.53689951 125.10174715 -40.50901664 127.74185515 -42 131.5625 C-46.62784805 137.20268981 -51.88928784 141.95115073 -59 144 C-62.6827164 144.21956575 -66.31650659 144.17984507 -70 144 C-70.06058594 144.88042969 -70.12117188 145.76085937 -70.18359375 146.66796875 C-70.30927734 148.41013672 -70.30927734 148.41013672 -70.4375 150.1875 C-70.55931641 151.91033203 -70.55931641 151.91033203 -70.68359375 153.66796875 C-70.95403812 156.51598171 -71.37521747 159.21210482 -72 162 C-71.18595703 161.25943359 -71.18595703 161.25943359 -70.35546875 160.50390625 C-69.64003906 159.86324219 -68.92460937 159.22257813 -68.1875 158.5625 C-67.47980469 157.92441406 -66.77210938 157.28632813 -66.04296875 156.62890625 C-62.56726399 153.85764643 -59.29858211 153.73352794 -54.94140625 153.765625 C-52.30727051 154.08362931 -50.85261851 155.14738149 -49 157 C-49.26734595 161.45576581 -49.61407849 163.54818945 -52.5625 167 C-55.37441437 169.81658243 -55.37441437 169.81658243 -55 173.5625 C-55 177 -55 177 -57.1875 179.6875 C-58.115625 180.450625 -59.04375 181.21375 -60 182 C-60.763125 182.70125 -61.52625 183.4025 -62.3125 184.125 C-66.96624412 187.37179822 -71.32023723 189 -77 189 C-77.92911667 202.02383887 -78.24081396 215.00697959 -78.25 228.0625 C-78.25100708 229.06623657 -78.25201416 230.06997314 -78.25305176 231.10412598 C-78.23508844 257.76908032 -75.4316976 283.70375354 -71 310 C-70.59627217 312.41990523 -70.19352073 314.83997201 -69.79077148 317.26004028 C-69.1948306 320.84019101 -68.59739805 324.42009216 -68 328 C-67.85751831 326.41638672 -67.85751831 326.41638672 -67.7121582 324.80078125 C-64.32068023 287.58711268 -58.20106299 251.84583086 -41.90405273 217.84228516 C-40.72590963 215.09582548 -40.72590963 215.09582548 -41.73608398 212.74511719 C-43.27286922 210.62324335 -44.95257332 208.64154739 -46.625 206.625 C-51.13616556 200.3859553 -50.67368172 194.42119229 -50 187 C-48.35 186.67 -46.7 186.34 -45 186 C-45.04640625 185.18015625 -45.0928125 184.3603125 -45.140625 183.515625 C-45.17671875 182.43796875 -45.2128125 181.3603125 -45.25 180.25 C-45.29640625 179.18265625 -45.3428125 178.1153125 -45.390625 177.015625 C-45 174 -45 174 -43.16796875 171.64453125 C-41 170 -41 170 -38.0625 169.4375 C-33.89789221 170.20242796 -32.6004958 171.69666749 -30 175 C-28.30758428 178.20926964 -27.14652004 181.56043987 -26 185 C-24.96122737 183.4493684 -23.94457445 181.88390319 -22.9375 180.3125 C-22.36902344 179.44238281 -21.80054688 178.57226562 -21.21484375 177.67578125 C-19.77990266 174.51521969 -19.89089826 173.24116139 -21 170 C-22.32346506 167.9934562 -23.65729179 165.99371825 -25 164 C-27.68800177 158.35519629 -27.8163375 152.12253124 -27 146 C-25.52831557 142.58548037 -23.63472641 139.63472641 -21 137 C-17.22051642 136.63658812 -14.7018698 136.66501668 -11.25 138.3125 C-7.86861328 142.35137858 -7.07728591 146.92011522 -6 152 C-5.401875 151.0925 -4.80375 150.185 -4.1875 149.25 C-2 146 -2 146 -0.125 143.9375 C1.30333632 141.99901842 1.30333632 141.99901842 0.375 139.5625 C-0.93070735 136.99938019 -0.93070735 136.99938019 -2.5625 134.80859375 C-4.40506934 131.20857377 -4.39917111 128.52851811 -4.375 124.5 C-4.38273438 123.2109375 -4.39046875 121.921875 -4.3984375 120.59375 C-3.98383786 116.85422382 -3.18118058 115.00871392 -1 112 C-0.38125 111.1028125 -0.38125 111.1028125 0.25 110.1875 C3.21262006 108.17715067 5.54542577 108.51514748 9 109 C11.4375 110.8125 11.4375 110.8125 13 114 C13.3163533 117.69251722 13.23299662 121.30441471 13 125 C13.66 125 14.32 125 15 125 C15.37125 123.9171875 15.37125 123.9171875 15.75 122.8125 C17 120 17 120 19.1875 117.5 C19.785625 116.675 20.38375 115.85 21 115 C20.72296534 113.32305615 20.37759007 111.65720084 20 110 C19.03696853 96.50177205 19.03696853 96.50177205 21.875 92.25 C25.86941581 88.02061856 25.86941581 88.02061856 28.375 87.625 C31 88 31 88 33.3125 89.5 C35.76157308 93.12825641 35.28810652 95.67840225 35 100 C35.928125 99.01 35.928125 99.01 36.875 98 C39 96 39 96 41 96 C40.67 95.01 40.34 94.02 40 93 C39.4285998 87.23105563 39.85561378 83.03101794 43 78 C44 77 44 77 46.375 76.75 C49.47041443 77.04480137 49.99228242 77.76920268 52 80 C52.33773437 79.50628906 52.67546875 79.01257813 53.0234375 78.50390625 C53.46945312 77.86324219 53.91546875 77.22257812 54.375 76.5625 C54.81585938 75.92441406 55.25671875 75.28632813 55.7109375 74.62890625 C57 73 57 73 59 72 C62 71.8125 62 71.8125 65 72 C67 74 67 74 67.0625 77.25 C65.66016102 82.1994317 63.08149298 84.09073738 59 87 C60.2065625 87.4640625 60.2065625 87.4640625 61.4375 87.9375 C64 89 64 89 65 90 C64.9375 93.375 64.9375 93.375 64 97 C60.05102889 100.4005029 56.44465941 100.02699436 51.5 99.8125 C46.92097714 99.60374867 46.92097714 99.60374867 42.82421875 101.32421875 C40.98514611 103.12723773 40.98514611 103.12723773 39 106 C39.78246094 106.13277344 40.56492187 106.26554687 41.37109375 106.40234375 C42.38300781 106.57894531 43.39492188 106.75554687 44.4375 106.9375 C45.44683594 107.11152344 46.45617187 107.28554687 47.49609375 107.46484375 C50 108 50 108 51 109 C51.46213592 115.23883495 51.46213592 115.23883495 49.9375 117.75 C44.16056992 121.47705166 39.7841174 122.5560752 33 122 C31.6520257 121.36345658 30.31403276 120.70394612 29 120 C27.01444855 120.06783517 27.01444855 120.06783517 25 121 C23.22069112 123.06472317 23.22069112 123.06472317 21.75 125.5625 C21.22921875 126.38878906 20.7084375 127.21507812 20.171875 128.06640625 C19.59179688 129.02353516 19.59179688 129.02353516 19 130 C19.66 129.67 20.32 129.34 21 129 C25.5792045 128.57855109 29.72289795 128.53086047 34.0625 130.125 C36 132 36 132 37.125 134.8125 C36.98471446 138.38978134 36.11151281 140.09847035 33.62890625 142.67578125 C27.06006962 148.01591463 19.03238627 147.55249218 11 147 C8.609375 146.484375 8.609375 146.484375 7 146 C6.51789063 146.75925781 6.03578125 147.51851562 5.5390625 148.30078125 C4.90742188 149.29464844 4.27578125 150.28851563 3.625 151.3125 C2.99851562 152.29863281 2.37203125 153.28476563 1.7265625 154.30078125 C0.50348387 156.21287929 -0.7409356 158.1114034 -2 160 C-1.05125 159.34 -0.1025 158.68 0.875 158 C5.48991697 155.37895182 9.81330169 155.17387564 15 156 C18.625 157.5625 18.625 157.5625 21 160 C21.60811308 163.71624661 21.32330161 166.09475549 20.0625 169.625 C16.99364797 173.15882961 13.15634174 174.94943292 9 177 C8.34 177.33 7.68 177.66 7 178 C5.47851674 178.08372659 3.95344222 178.10730027 2.4296875 178.09765625 C1.53378906 178.09443359 0.63789063 178.09121094 -0.28515625 178.08789062 C-1.22230469 178.07951172 -2.15945313 178.07113281 -3.125 178.0625 C-4.06988281 178.05798828 -5.01476562 178.05347656 -5.98828125 178.04882812 C-8.3255477 178.03702375 -10.66278169 178.01908799 -13 178 C-15.97 183.28 -18.94 188.56 -22 194 C-18.535 192.02 -18.535 192.02 -15 190 C-11.30742723 188.15371362 -7.03889903 188.65707461 -3 189 C0.0625 190.125 0.0625 190.125 2 192 C3.125 194.8125 3.125 194.8125 3 198 C-0.04014172 202.79052635 -2.34639546 204.68520825 -8 206 C-7.67 207.65 -7.34 209.3 -7 211 C-13.6452418 217.02225038 -19.78570872 218.35200493 -28.58203125 218.203125 C-31 218 -31 218 -34 217 C-34.556875 218.7015625 -34.556875 218.7015625 -35.125 220.4375 C-36.687886 225.11875097 -38.30444648 229.78036844 -39.9375 234.4375 C-40.29835693 235.4737854 -40.29835693 235.4737854 -40.66650391 236.53100586 C-42.02272225 240.38322394 -43.46701441 244.18007231 -45.01171875 247.9609375 C-55.51903304 274.05555894 -60.05049238 303.00918969 -60 331 C-59.79697266 329.41638672 -59.79697266 329.41638672 -59.58984375 327.80078125 C-55.08620563 295.72474737 -40.08454669 266.02717735 -14 246 C-1.10480693 236.95170768 12.45375081 230.19253863 27.5 225.5625 C28.33692383 225.30307617 29.17384766 225.04365234 30.03613281 224.77636719 C34.86099014 223.36822938 38.97607076 222.72314368 44 223 C40.9771767 226.23174785 37.42663838 228.06028263 33.5625 230.125 C26.16577146 234.18549143 19.59909199 238.72072641 13 244 C12.14664063 244.6496875 11.29328125 245.299375 10.4140625 245.96875 C4.29037767 250.75000543 -1.23838803 256.03295632 -6.75 261.5 C-7.45922607 262.19996094 -8.16845215 262.89992188 -8.89916992 263.62109375 C-16.3959073 271.16259563 -22.52731948 279.54060457 -28.5 288.3125 C-29.06388428 289.14064209 -29.62776855 289.96878418 -30.20874023 290.82202148 C-35.96630562 299.3417575 -41.42622608 307.77647321 -45.04296875 317.45703125 C-46.09061263 320.24077071 -47.25973549 322.95639903 -48.4375 325.6875 C-53.6825984 338.34029123 -56.93808655 350.52790334 -59 364 C-59.33079592 366.00042125 -59.66312648 368.00059325 -60 370 C-60.66 370 -61.32 370 -62 370 C-62.26554687 369.16855469 -62.53109375 368.33710938 -62.8046875 367.48046875 C-63.15789062 366.39378906 -63.51109375 365.30710937 -63.875 364.1875 C-64.22304687 363.10855469 -64.57109375 362.02960938 -64.9296875 360.91796875 C-65.91959653 357.86684198 -65.91959653 357.86684198 -68 355 C-68.4900358 353.66620417 -68.93704938 352.31619469 -69.3515625 350.95703125 C-71.03937811 345.71887327 -73.17082312 340.72608029 -75.375 335.6875 C-76.18286817 333.82577089 -76.99016422 331.96379341 -77.796875 330.1015625 C-78.37211914 328.77560059 -78.37211914 328.77560059 -78.95898438 327.42285156 C-80.2211342 324.48533401 -81.42660682 321.5265258 -82.625 318.5625 C-84.65991032 313.61956905 -87.05015315 308.88671614 -89.48706055 304.13452148 C-91.22876946 300.69050454 -92.69964816 297.2783061 -93.9375 293.625 C-96.23664307 287.00423117 -99.4149569 280.87462492 -102.625 274.66308594 C-103.96302471 272.07161336 -105.29245355 269.47583249 -106.62045288 266.87921143 C-107.88396435 264.41112971 -109.1517493 261.9452615 -110.42071533 259.47998047 C-111.05546749 258.24612134 -111.68922084 257.01174786 -112.32196045 255.77685547 C-113.21858742 254.02893626 -114.12090596 252.28394023 -115.0234375 250.5390625 C-115.54856934 249.52021973 -116.07370117 248.50137695 -116.61474609 247.45166016 C-117.90003604 244.92144197 -117.90003604 244.92144197 -120 243 C-120.72414234 241.34094189 -121.4440396 239.67979553 -122.13427734 238.00634766 C-123.66204647 234.46568022 -125.49679736 231.08709712 -127.3125 227.6875 C-127.7149292 226.93259277 -128.1173584 226.17768555 -128.53198242 225.39990234 C-131.52317052 219.82282645 -134.63727618 214.36258159 -138 209 C-138.61633301 208.00709961 -138.61633301 208.00709961 -139.24511719 206.99414062 C-152.63457356 185.43310927 -166.54988338 164.20663341 -184.7265625 146.31640625 C-187 144 -187 144 -188 142 C-180.79096998 144.55804291 -174.30982608 148.52262556 -168.30078125 153.20703125 C-166.50589373 154.60576363 -164.68540217 155.97165927 -162.85546875 157.32421875 C-156.5045955 162.0376931 -150.94348403 166.79009534 -146 173 C-145.20980469 173.91652344 -144.41960937 174.83304688 -143.60546875 175.77734375 C-138.08306957 182.20652894 -133.46792527 188.7854917 -129 196 C-129.15146484 195.22438721 -129.30292969 194.44877441 -129.45898438 193.6496582 C-136.76360695 155.11215515 -138.13720297 115.05161253 -120 79 C-119.34 78.67 -118.68 78.34 -118 78 C-118.08564209 78.62455078 -118.17128418 79.24910156 -118.25952148 79.89257812 C-118.65266539 82.76165261 -119.04508744 85.6308254 -119.4375 88.5 C-119.63956055 89.97339844 -119.63956055 89.97339844 -119.84570312 91.4765625 C-120.1125207 93.42888625 -120.37643968 95.38160834 -120.63745117 97.3347168 C-120.93101901 99.49288521 -121.25059687 101.64750507 -121.578125 103.80078125 C-122.33748066 110.06247117 -122.28894457 116.38833085 -122.3125 122.6875 C-122.31545074 123.38408722 -122.31840149 124.08067444 -122.32144165 124.79837036 C-122.3357081 139.76642859 -120.53010333 154.24599688 -118 169 C-117.78545166 170.29873047 -117.57090332 171.59746094 -117.34985352 172.93554688 C-115.64639932 183.08547584 -113.49336752 193.10142781 -111.14819336 203.12109375 C-110.56156363 205.6290031 -109.98242911 208.13855713 -109.40429688 210.6484375 C-107.37765591 219.40026821 -105.23315794 228.10477363 -102.8671875 236.77124023 C-102.00476019 239.98227659 -101.21044541 243.20388379 -100.4375 246.4375 C-99.45157411 250.42916754 -98.26761694 254.19999172 -96.74609375 258.015625 C-95.8967262 260.27467587 -95.22880867 262.55552549 -94.5625 264.875 C-93.29663123 269.20944071 -91.69452865 273.31781463 -89.97265625 277.48828125 C-88.70395158 280.76449452 -87.73735865 284.09422652 -86.80859375 287.48046875 C-85.99681992 290.15793651 -85.99681992 290.15793651 -84.578125 293.2421875 C-82.77128306 297.36709447 -81.53964891 301.61096592 -80.3125 305.9375 C-79.97508789 307.10635742 -79.97508789 307.10635742 -79.63085938 308.29882812 C-79.08322633 310.19806614 -78.54104051 312.09887345 -78 314 C-79.31503876 304.65271023 -79.31503876 304.65271023 -80.73046875 295.3203125 C-80.85768311 294.50143555 -80.98489746 293.68255859 -81.1159668 292.83886719 C-81.3591084 291.27892753 -81.60617521 289.71959032 -81.85864258 288.16113281 C-82.27924818 285.4453038 -82.64120202 282.72471436 -83 280 C-83.18224121 278.74405029 -83.36448242 277.48810059 -83.55224609 276.1940918 C-85.0236686 264.94596654 -85.0809124 253.79173005 -84.9140625 242.47265625 C-84.89339225 240.88810353 -84.87282404 239.30354948 -84.85235596 237.71899414 C-84.76274616 231.15877851 -84.66528492 224.59923231 -84.50634766 218.0402832 C-84.40932864 213.97775161 -84.35136512 209.91625826 -84.3188591 205.85272026 C-84.29913644 204.3187023 -84.264823 202.78479639 -84.21529007 201.25145149 C-83.58914133 193.10073824 -83.58914133 193.10073824 -86.730896 186.03683472 C-88.80812181 184.67388849 -88.80812181 184.67388849 -91.00033569 183.84056091 C-94.38982042 182.41578758 -95.85969484 179.93527565 -98 177 C-98.598125 176.278125 -99.19625 175.55625 -99.8125 174.8125 C-101.42510885 170.99316325 -101.17640599 167.62587903 -101.0078125 163.5234375 C-100.86537081 160.87194866 -100.86537081 160.87194866 -102 158 C-102.36952737 154.47527735 -102.68805827 151.18498924 -100.875 148.0625 C-98.11757646 146.49995999 -96.18527721 146.06245642 -93 146 C-88.16574834 148.46645493 -85.14539437 151.68631629 -82 156 C-81.36328125 158.1875 -81.36328125 158.1875 -81 160 C-80.49095343 158.12743583 -79.99317545 156.25180659 -79.5 154.375 C-79.2215625 153.33085937 -78.943125 152.28671875 -78.65625 151.2109375 C-77.99179214 147.95984011 -77.61528836 145.30017693 -78 142 C-79.53689444 140.28148972 -79.53689444 140.28148972 -81.6875 139.125 C-87.02557758 135.53788759 -89.97702876 131.06891373 -92 125 C-92.14591566 122.69060412 -92.22086484 120.37631759 -92.25 118.0625 C-92.27578125 116.83660156 -92.3015625 115.61070312 -92.328125 114.34765625 C-91.98068451 110.80293601 -91.59399153 109.39988332 -89 107 C-83.92913427 106.25183948 -82.03492009 106.336089 -77.6875 109.125 C-74.24955428 112.80280239 -72 115.87186305 -72 121 C-71.34 121 -70.68 121 -70 121 C-69.86722656 120.26394531 -69.73445313 119.52789062 -69.59765625 118.76953125 C-69.42105469 117.79371094 -69.24445313 116.81789063 -69.0625 115.8125 C-68.80146484 114.36810547 -68.80146484 114.36810547 -68.53515625 112.89453125 C-68.0476265 110.25760028 -67.53328895 107.6280095 -67 105 C-67.70125 104.566875 -68.4025 104.13375 -69.125 103.6875 C-74.2937464 98.85584576 -77.54656328 93.42271585 -78.484375 86.34375 C-78.71163489 75.5261792 -78.71163489 75.5261792 -75 71 C-72.20034321 70.33086597 -69.91199859 70.76131159 -67 71 C-67 71.66 -67 72.32 -67 73 C-66.39671875 73.23460937 -65.7934375 73.46921875 -65.171875 73.7109375 C-62.46867073 75.3153573 -61.67684104 76.85058687 -60.25 79.625 C-59.82203125 80.44226563 -59.3940625 81.25953125 -58.953125 82.1015625 C-58.63859375 82.72804688 -58.3240625 83.35453125 -58 84 C-57.29773859 82.75823305 -56.61370891 81.50614401 -55.9375 80.25 C-55.55464844 79.55390625 -55.17179688 78.8578125 -54.77734375 78.140625 C-53.84589517 75.57563092 -54.02596069 74.51712264 -55 72 C-56.32346506 69.9934562 -57.65729179 67.99371825 -59 66 C-61.72790057 60.95338394 -61.81253464 55.41518467 -60.5 49.8984375 C-59.42034605 46.91712035 -58.50365023 45.27224337 -55.6875 43.75 C-51.64639748 44.12591651 -49.84019641 46.22291907 -47 49 C-44.87491756 52.18762365 -44.4979837 54.26512223 -44 58 C-40.77320612 53.00735585 -40.77320612 53.00735585 -40.5625 47.375 C-41.57451993 45.70296707 -42.59626573 44.03680151 -43.625 42.375 C-45.58402543 37.56648303 -45.7115874 33.12502838 -45 28 C-43.375 25.3125 -43.375 25.3125 -41 24 C-37.88432107 23.55490301 -35.9749249 23.40808131 -33.25 25.0625 C-31.44577325 27.85905147 -30.78736352 30.78997949 -30 34 C-26.68223769 29.86203041 -26.68223769 29.86203041 -26.1875 24.75 C-26.89186474 22.07005946 -26.89186474 22.07005946 -28 20 C-28.527529 15.11387075 -28.68371624 11.22092185 -26.25 6.875 C-24 5 -24 5 -20 5 C-17.65981317 7.25660873 -17.03493578 8.48760851 -16.8125 11.75 C-16.874375 12.4925 -16.93625 13.235 -17 14 C-16.34 14 -15.68 14 -15 14 C-14.938125 13.319375 -14.87625 12.63875 -14.8125 11.9375 C-13.52739732 7.29135954 -10.93635549 3.39175551 -7 0.5625 C-4.53521381 -0.13072111 -2.54723566 -0.26813007 0 0 Z " fill="#997BC9" transform="translate(289,92)"/>
<path d="M0 0 C2 2 2 2 2.375 4.25 C1.7453758 8.86724413 -0.72619538 11.93849615 -4.25 14.875 C-5.11625 15.431875 -5.11625 15.431875 -6 16 C-5.01 16.556875 -4.02 17.11375 -3 17.6875 C0 20 0 20 0.75 22.5 C-0.37497568 26.24991893 -2.6605953 27.16660134 -6 29 C-9.03685792 30.01228597 -11.26147256 30.09700261 -14.4375 30.1875 C-18.37461932 30.41139198 -18.37461932 30.41139198 -21.609375 32.3984375 C-22.84426086 34.21081572 -22.84426086 34.21081572 -24 37 C-23.24074219 36.97679687 -22.48148437 36.95359375 -21.69921875 36.9296875 C-20.70535156 36.91164062 -19.71148437 36.89359375 -18.6875 36.875 C-17.70136719 36.85179687 -16.71523438 36.82859375 -15.69921875 36.8046875 C-13 37 -13 37 -10 39 C-9.375 42.3125 -9.375 42.3125 -10 46 C-13.62966347 49.80388732 -17.86350474 51.93348396 -23.13671875 52.09765625 C-24.30847656 52.08605469 -25.48023438 52.07445312 -26.6875 52.0625 C-28.45673828 52.04896484 -28.45673828 52.04896484 -30.26171875 52.03515625 C-31.16535156 52.02355469 -32.06898438 52.01195312 -33 52 C-34.65 54.97 -36.3 57.94 -38 61 C-36.7315625 60.505 -36.7315625 60.505 -35.4375 60 C-30.85779278 58.66772154 -27.0204769 58.1192793 -22.5625 60.0625 C-21 62 -21 62 -20.5 65.4375 C-21 69 -21 69 -22.5 71.1875 C-29.89662775 76.55005512 -35.78195532 77.86507804 -45 77 C-45.99 76.505 -45.99 76.505 -47 76 C-47.103125 76.639375 -47.20625 77.27875 -47.3125 77.9375 C-48.23903073 82.06477326 -49.61660629 86.00642949 -51 90 C-50.401875 89.525625 -49.80375 89.05125 -49.1875 88.5625 C-45.55413953 85.96724252 -42.65122775 85.88645614 -38.3125 85.9375 C-37.31863281 85.94652344 -36.32476562 85.95554687 -35.30078125 85.96484375 C-34.54152344 85.97644531 -33.78226563 85.98804688 -33 86 C-33 86.66 -33 87.32 -33 88 C-32.01 88.33 -31.02 88.66 -30 89 C-29.46227833 92.68723428 -29.3224414 94.85155948 -31.2421875 98.10546875 C-36.28135429 104.29412289 -41.55005268 107.41302837 -49.46484375 108.45703125 C-52.64565556 108.71605501 -55.8105531 108.90140813 -59 109 C-59.66 111.31 -60.32 113.62 -61 116 C-61.33 115.01 -61.66 114.02 -62 113 C-61.67 112.34 -61.34 111.68 -61 111 C-61.66 111 -62.32 111 -63 111 C-63.33 111.99 -63.66 112.98 -64 114 C-64.99 114 -65.98 114 -67 114 C-67 114.66 -67 115.32 -67 116 C-67.66 116 -68.32 116 -69 116 C-68.34 112.37 -67.68 108.74 -67 105 C-67.70125 104.566875 -68.4025 104.13375 -69.125 103.6875 C-74.2937464 98.85584576 -77.54656328 93.42271585 -78.484375 86.34375 C-78.71163489 75.5261792 -78.71163489 75.5261792 -75 71 C-72.20034321 70.33086597 -69.91199859 70.76131159 -67 71 C-67 71.66 -67 72.32 -67 73 C-66.39671875 73.23460937 -65.7934375 73.46921875 -65.171875 73.7109375 C-62.46867073 75.3153573 -61.67684104 76.85058687 -60.25 79.625 C-59.82203125 80.44226563 -59.3940625 81.25953125 -58.953125 82.1015625 C-58.63859375 82.72804688 -58.3240625 83.35453125 -58 84 C-57.29773859 82.75823305 -56.61370891 81.50614401 -55.9375 80.25 C-55.55464844 79.55390625 -55.17179687 78.8578125 -54.77734375 78.140625 C-53.84589517 75.57563092 -54.02596069 74.51712264 -55 72 C-56.32346506 69.9934562 -57.65729179 67.99371825 -59 66 C-61.72790057 60.95338394 -61.81253464 55.41518467 -60.5 49.8984375 C-59.42034605 46.91712035 -58.50365023 45.27224337 -55.6875 43.75 C-51.64639748 44.12591651 -49.84019641 46.22291907 -47 49 C-44.87491756 52.18762365 -44.4979837 54.26512223 -44 58 C-40.77320612 53.00735585 -40.77320612 53.00735585 -40.5625 47.375 C-41.57451993 45.70296707 -42.59626573 44.03680151 -43.625 42.375 C-45.58402543 37.56648303 -45.7115874 33.12502838 -45 28 C-43.375 25.3125 -43.375 25.3125 -41 24 C-37.88432107 23.55490301 -35.9749249 23.40808131 -33.25 25.0625 C-31.44577325 27.85905147 -30.78736352 30.78997949 -30 34 C-26.68223769 29.86203041 -26.68223769 29.86203041 -26.1875 24.75 C-26.89186474 22.07005946 -26.89186474 22.07005946 -28 20 C-28.527529 15.11387075 -28.68371624 11.22092185 -26.25 6.875 C-24 5 -24 5 -20 5 C-17.65981317 7.25660873 -17.03493578 8.48760851 -16.8125 11.75 C-16.9053125 12.86375 -16.9053125 12.86375 -17 14 C-16.34 14 -15.68 14 -15 14 C-14.938125 13.319375 -14.87625 12.63875 -14.8125 11.9375 C-13.52739732 7.29135954 -10.93635549 3.39175551 -7 0.5625 C-4.53521381 -0.13072111 -2.54723566 -0.26813007 0 0 Z " fill="#AB82DB" transform="translate(289,92)"/>
<path d="M0 0 C4.66404464 0.24863473 7.00140754 2.15412202 10.1875 5.5625 C12.16708237 8.86180395 13.1875 10.71323315 13.1875 14.5625 C13.8475 14.5625 14.5075 14.5625 15.1875 14.5625 C15.5175 12.9125 15.8475 11.2625 16.1875 9.5625 C16.8475 9.5625 17.5075 9.5625 18.1875 9.5625 C18.1875 8.9025 18.1875 8.2425 18.1875 7.5625 C19.1775 7.2325 20.1675 6.9025 21.1875 6.5625 C21.5175 5.9025 21.8475 5.2425 22.1875 4.5625 C22.8475 4.5625 23.5075 4.5625 24.1875 4.5625 C23.5275 8.8525 22.8675 13.1425 22.1875 17.5625 C23.30125 16.5725 24.415 15.5825 25.5625 14.5625 C29.71706574 11.43548699 32.77379356 10.93637644 37.890625 11.05859375 C40.69422409 11.67366906 42.14706023 12.54969599 44.1875 14.5625 C44.65060049 18.66424715 44.67848336 21.30435515 43.1875 25.125 C38.55965195 30.76518981 33.29821216 35.51365073 26.1875 37.5625 C22.5047836 37.78206575 18.87099341 37.74234507 15.1875 37.5625 C15.09662109 38.88314453 15.09662109 38.88314453 15.00390625 40.23046875 C14.92011719 41.39191406 14.83632812 42.55335938 14.75 43.75 C14.66878906 44.89855469 14.58757812 46.04710937 14.50390625 47.23046875 C14.23346188 50.07848171 13.81228253 52.77460482 13.1875 55.5625 C13.73019531 55.06878906 14.27289063 54.57507813 14.83203125 54.06640625 C15.54746094 53.42574219 16.26289063 52.78507812 17 52.125 C17.70769531 51.48691406 18.41539062 50.84882813 19.14453125 50.19140625 C22.62023601 47.42014643 25.88891789 47.29602794 30.24609375 47.328125 C32.88022949 47.64612931 34.33488149 48.70988149 36.1875 50.5625 C35.92015405 55.01826581 35.57342151 57.11068945 32.625 60.5625 C29.81308563 63.37908243 29.81308563 63.37908243 30.1875 67.125 C30.1875 70.5625 30.1875 70.5625 28 73.25 C27.071875 74.013125 26.14375 74.77625 25.1875 75.5625 C24.0428125 76.614375 24.0428125 76.614375 22.875 77.6875 C18.22125588 80.93429822 13.86726277 82.5625 8.1875 82.5625 C8.1875 84.5425 8.1875 86.5225 8.1875 88.5625 C7.8575 88.5625 7.5275 88.5625 7.1875 88.5625 C6.8575 86.9125 6.5275 85.2625 6.1875 83.5625 C4.8675 83.5625 3.5475 83.5625 2.1875 83.5625 C1.8575 84.2225 1.5275 84.8825 1.1875 85.5625 C1.09984375 84.95148438 1.0121875 84.34046875 0.921875 83.7109375 C-0.02264881 80.94770295 -1.0200881 80.53516947 -3.5625 79.1875 C-7.68531542 76.78313895 -10.00199471 74.41690725 -12.8125 70.5625 C-13.410625 69.840625 -14.00875 69.11875 -14.625 68.375 C-16.23760885 64.55566325 -15.98890599 61.18837903 -15.8203125 57.0859375 C-15.67787081 54.43444866 -15.67787081 54.43444866 -16.8125 51.5625 C-17.18202737 48.03777735 -17.50055827 44.74748924 -15.6875 41.625 C-12.93007646 40.06245999 -10.99777721 39.62495642 -7.8125 39.5625 C-2.97824834 42.02895493 0.04210563 45.24881629 3.1875 49.5625 C3.82421875 51.75 3.82421875 51.75 4.1875 53.5625 C4.69654657 51.68993583 5.19432455 49.81430659 5.6875 47.9375 C5.9659375 46.89335937 6.244375 45.84921875 6.53125 44.7734375 C7.19570786 41.52234011 7.57221164 38.86267693 7.1875 35.5625 C5.65060556 33.84398972 5.65060556 33.84398972 3.5 32.6875 C-1.83807758 29.10038759 -4.78952876 24.63141373 -6.8125 18.5625 C-6.95841566 16.25310412 -7.03336484 13.93881759 -7.0625 11.625 C-7.08828125 10.39910156 -7.1140625 9.17320312 -7.140625 7.91015625 C-6.61186262 2.51552104 -5.39637664 0.79618672 0 0 Z " fill="#A07DD0" transform="translate(203.8125,198.4375)"/>
<path d="M0 0 C2 2 2 2 2.0625 5.25 C0.66016102 10.1994317 -1.91850702 12.09073738 -6 15 C-5.195625 15.309375 -4.39125 15.61875 -3.5625 15.9375 C-1 17 -1 17 0 18 C-0.0625 21.375 -0.0625 21.375 -1 25 C-4.94897111 28.4005029 -8.55534059 28.02699436 -13.5 27.8125 C-18.07902286 27.60374867 -18.07902286 27.60374867 -22.17578125 29.32421875 C-24.01485389 31.12723773 -24.01485389 31.12723773 -26 34 C-25.21753906 34.13277344 -24.43507813 34.26554687 -23.62890625 34.40234375 C-22.61699219 34.57894531 -21.60507812 34.75554687 -20.5625 34.9375 C-19.55316406 35.11152344 -18.54382813 35.28554687 -17.50390625 35.46484375 C-15 36 -15 36 -14 37 C-13.53786408 43.23883495 -13.53786408 43.23883495 -15.0625 45.75 C-20.81782618 49.46311367 -25.23437312 50.64434542 -32 50 C-36.38355468 48.18041127 -40.06070314 45.62619791 -44 43 C-45.88742334 36.80792692 -46.4807187 27.90881666 -44.17578125 21.82421875 C-42.70662025 19.62320804 -40.86687046 17.86687046 -39 16 C-35.80165127 15.49499757 -34.4213623 15.72668391 -31.6875 17.5 C-29.23842692 21.12825641 -29.71189348 23.67840225 -30 28 C-29.071875 27.01 -29.071875 27.01 -28.125 26 C-26 24 -26 24 -24 24 C-24.33 23.01 -24.66 22.02 -25 21 C-25.5714002 15.23105563 -25.14438622 11.03101794 -22 6 C-21 5 -21 5 -18.625 4.75 C-15.52958557 5.04480137 -15.00771758 5.76920268 -13 8 C-12.66226563 7.50628906 -12.32453125 7.01257813 -11.9765625 6.50390625 C-11.30753906 5.54291016 -11.30753906 5.54291016 -10.625 4.5625 C-10.18414062 3.92441406 -9.74328125 3.28632813 -9.2890625 2.62890625 C-6.71006253 -0.63001189 -3.92276819 -0.24517301 0 0 Z " fill="#A57FD7" transform="translate(354,164)"/>
<path d="M0 0 C0.33 0 0.66 0 1 0 C1 3.3 1 6.6 1 10 C2.32 9.34 3.64 8.68 5 8 C4.95456055 8.90987671 4.95456055 8.90987671 4.90820312 9.83813477 C4.17352729 24.90322788 3.86168903 39.91772026 4 55 C3.34 55 2.68 55 2 55 C2 47.74 2 40.48 2 33 C1.01 33 0.02 33 -1 33 C-1.33 36.63 -1.66 40.26 -2 44 C-2.99 44 -3.98 44 -5 44 C-5 42.35 -5 40.7 -5 39 C-4.67 39 -4.34 39 -4 39 C-2.68 26.13 -1.36 13.26 0 0 Z " fill="#A186CA" transform="translate(225,381)"/>
<path d="M0 0 C8.18650615 2.90488928 15.24622729 7.63415856 22 13 C22.89847656 13.71285156 23.79695313 14.42570313 24.72265625 15.16015625 C27.15445519 17.09943895 29.57994033 19.04609937 32 21 C31.34 21.66 30.68 22.32 30 23 C29.401875 22.67 28.80375 22.34 28.1875 22 C25.94613529 20.79212012 25.94613529 20.79212012 23 21 C22.67 21.99 22.34 22.98 22 24 C17.88667495 19.94628836 13.98232721 15.73959921 10.10546875 11.4609375 C7.8591505 8.99315125 5.5936573 6.59822294 3.21875 4.25 C1 2 1 2 0 0 Z " fill="#9D82C9" transform="translate(101,234)"/>
<path d="M0 0 C1.02089007 3.0626702 1.00009981 4.10226157 0.4765625 7.16796875 C0.3425 7.97943359 0.2084375 8.79089844 0.0703125 9.62695312 C-0.07664063 10.47193359 -0.22359375 11.31691406 -0.375 12.1875 C-0.65489717 13.84744574 -0.93355532 15.5076009 -1.2109375 17.16796875 C-1.34733643 17.9760498 -1.48373535 18.78413086 -1.62426758 19.61669922 C-1.98320946 21.89349627 -2.27153785 24.16748074 -2.53515625 26.45703125 C-2.93853197 29.53149996 -3.38047137 31.40875419 -5 34 C-9 34 -9 34 -11 33 C-9.85906457 25.19777875 -7.85035028 18.19099606 -4.9375 10.875 C-4.57333984 9.93140625 -4.20917969 8.9878125 -3.83398438 8.015625 C-1.16306634 1.16306634 -1.16306634 1.16306634 0 0 Z " fill="#A587D2" transform="translate(170,170)"/>
<path d="M0 0 C0.66 0.99 1.32 1.98 2 3 C2.33 2.01 2.66 1.02 3 0 C3.99 0 4.98 0 6 0 C5.32418477 6.08233706 4.26361972 12.01314152 3 18 C2.34 17.67 1.68 17.34 1 17 C0.34 17.66 -0.32 18.32 -1 19 C-1.99 19.66 -2.98 20.32 -4 21 C-4.66 21.99 -5.32 22.98 -6 24 C-5.55052002 15.45988044 -2.85091417 7.98466367 0 0 Z " fill="#9C81C6" transform="translate(235,342)"/>
<path d="M0 0 C-2.5638197 2.94528769 -5.47895744 4.48866559 -8.9375 6.25 C-9.97777344 6.79140625 -11.01804687 7.3328125 -12.08984375 7.890625 C-15 9 -15 9 -17.25390625 8.921875 C-19.55246419 7.70831868 -20.07877209 6.37983876 -21 4 C-18.81613582 3.32151792 -16.62769916 2.6577449 -14.4375 2 C-13.21933594 1.62875 -12.00117188 1.2575 -10.74609375 0.875 C-7.02076651 0.00485057 -3.80934051 -0.15688404 0 0 Z " fill="#9D85C7" transform="translate(333,315)"/>
<path d="M0 0 C3.5625 0.375 3.5625 0.375 6 1.4375 C7.5625 3.375 7.5625 3.375 8.0625 6.8125 C7.5625 10.375 7.5625 10.375 5.9375 12.625 C3.27525859 14.58665156 0.56944593 16.0082064 -2.4375 17.375 C-2.1075 16.385 -1.7775 15.395 -1.4375 14.375 C-0.7775 14.375 -0.1175 14.375 0.5625 14.375 C0.5625 13.715 0.5625 13.055 0.5625 12.375 C1.408125 11.611875 2.25375 10.84875 3.125 10.0625 C3.929375 9.175625 4.73375 8.28875 5.5625 7.375 C5.2325 5.725 4.9025 4.075 4.5625 2.375 C0.9325 2.705 -2.6975 3.035 -6.4375 3.375 C-3.4375 0.375 -3.4375 0.375 0 0 Z " fill="#A787CE" transform="translate(260.4375,150.625)"/>
<path d="M0 0 C0.33 0 0.66 0 1 0 C1.21987126 13.50347777 1.19918647 26.64779643 -1 40 C-1.33 40 -1.66 40 -2 40 C-2.29218835 10.13185774 -2.29218835 10.13185774 0 0 Z " fill="#E0CCF3" transform="translate(230,392)"/>
<path d="M0 0 C0.33 0 0.66 0 1 0 C1.53132389 2.58157368 2.05034379 5.16461756 2.5625 7.75 C2.71396484 8.47960937 2.86542969 9.20921875 3.02148438 9.9609375 C3.77822455 13.83263141 3.97416298 16.10334808 3 20 C-0.465 14.06 -0.465 14.06 -4 8 C-3.34 7.01 -2.68 6.02 -2 5 C-1.30686092 3.34416775 -0.63525576 1.67889021 0 0 Z " fill="#F0E3F9" transform="translate(157,270)"/>
<path d="M0 0 C6.12925787 2.17489796 12.5626259 5.15280472 17 10 C15.68 10 14.36 10 13 10 C12.67 10.99 12.34 11.98 12 13 C7.17514834 9.04174791 3.16589254 5.40839975 0 0 Z " fill="#A58BCA" transform="translate(101,234)"/>
<path d="M0 0 C1.76462683 3.08809695 2 4.23312136 2 8 C1.01 8.495 1.01 8.495 0 9 C-0.33 9.99 -0.66 10.98 -1 12 C-1.66 12 -2.32 12 -3 12 C-5.08466413 8.61242079 -5.42905061 5.94726562 -5 2 C-2 0 -2 0 0 0 Z " fill="#9378C0" transform="translate(203,384)"/>
<path d="M0 0 C2.77477095 0.12751705 3.73339361 0.2375452 6 1.9375 C6.495 2.68 6.495 2.68 7 3.4375 C6.01 3.7675 5.02 4.0975 4 4.4375 C4 3.7775 4 3.1175 4 2.4375 C1.6704053 1.93508678 1.6704053 1.93508678 -1 2.4375 C-4.22834776 5.49134248 -4.91323246 7.27646767 -5.24609375 11.73046875 C-5.24963307 14.97602606 -5.17308884 18.19689223 -5 21.4375 C-7.43718285 17.78172573 -7.29880388 15.85080098 -7.3125 11.5 C-7.32925781 10.27410156 -7.34601563 9.04820312 -7.36328125 7.78515625 C-6.82287388 2.80527328 -5.31277768 -0.15093118 0 0 Z " fill="#AD8DD4" transform="translate(204,198.5625)"/>
<path d="M0 0 C0 0.33 0 0.66 0 1 C-1.175625 1.0928125 -1.175625 1.0928125 -2.375 1.1875 C-3.24125 1.455625 -4.1075 1.72375 -5 2 C-6.32481546 4.39529669 -6.32481546 4.39529669 -7 7 C-7.33 7.66 -7.66 8.32 -8 9 C-7.71887936 11.00800456 -7.38932033 13.01014051 -7 15 C-7.66 15 -8.32 15 -9 15 C-9 15.66 -9 16.32 -9 17 C-10.65 17.33 -12.3 17.66 -14 18 C-14.33 18.99 -14.66 19.98 -15 21 C-14.67 19.35 -14.34 17.7 -14 16 C-12.68 16 -11.36 16 -10 16 C-10.04640625 15.18015625 -10.0928125 14.3603125 -10.140625 13.515625 C-10.17671875 12.43796875 -10.2128125 11.3603125 -10.25 10.25 C-10.29640625 9.18265625 -10.3428125 8.1153125 -10.390625 7.015625 C-10 4 -10 4 -8.1875 1.625 C-5.33734149 -0.4922606 -3.46690927 -0.31517357 0 0 Z " fill="#A086C9" transform="translate(254,262)"/>
<path d="M0 0 C1.134375 0.020625 2.26875 0.04125 3.4375 0.0625 C1.21088433 1.87677944 -0.49546585 3.04067493 -3.25 3.9375 C-4.3946875 4.494375 -4.3946875 4.494375 -5.5625 5.0625 C-6.38181089 7.57426074 -6.38181089 7.57426074 -6.5625 10.0625 C-6.8925 10.3925 -7.2225 10.7225 -7.5625 11.0625 C-7.79537008 12.74433948 -7.97514166 14.4337416 -8.125 16.125 C-8.20878906 17.04410156 -8.29257812 17.96320313 -8.37890625 18.91015625 C-8.43949219 19.62042969 -8.50007813 20.33070313 -8.5625 21.0625 C-8.8925 21.0625 -9.2225 21.0625 -9.5625 21.0625 C-10.1709712 12.94955066 -9.89134608 7.43964367 -4.5625 1.0625 C-3.5625 0.0625 -3.5625 0.0625 0 0 Z " fill="#B399D5" transform="translate(271.5625,228.9375)"/>
<path d="M0 0 C1.98 0.99 1.98 0.99 4 2 C4 3.98 4 5.96 4 8 C4.66 8 5.32 8 6 8 C6.28875 8.639375 6.5775 9.27875 6.875 9.9375 C7.82823451 12.15206079 7.82823451 12.15206079 10 13 C10 13.66 10 14.32 10 15 C10.66 15 11.32 15 12 15 C11.67 16.32 11.34 17.64 11 19 C7.54047121 17.95907983 6.89678855 16.81707239 5.078125 13.59375 C4.45572273 12.23505909 3.84672492 10.87016237 3.25 9.5 C2.77626953 8.46552734 2.77626953 8.46552734 2.29296875 7.41015625 C0 2.3179789 0 2.3179789 0 0 Z M9 15 C10 17 10 17 10 17 Z " fill="#9177BD" transform="translate(170,332)"/>
<path d="M0 0 C2.475 0.99 2.475 0.99 5 2 C5 3.32 5 4.64 5 6 C5.66 6 6.32 6 7 6 C7 8.64 7 11.28 7 14 C6.01 14.495 6.01 14.495 5 15 C4.74476563 13.95199219 4.74476563 13.95199219 4.484375 12.8828125 C4.12085938 11.51769531 4.12085938 11.51769531 3.75 10.125 C3.51796875 9.22007812 3.2859375 8.31515625 3.046875 7.3828125 C2.20085821 4.85042396 2.20085821 4.85042396 -0.109375 3.6796875 C-0.73328125 3.45539063 -1.3571875 3.23109375 -2 3 C-1.34 3 -0.68 3 0 3 C0 2.01 0 1.02 0 0 Z " fill="#A87EDE" transform="translate(294,202)"/>
<path d="M0 0 C1.2065625 0.0309375 1.2065625 0.0309375 2.4375 0.0625 C2.7675 0.7225 3.0975 1.3825 3.4375 2.0625 C2.7775 2.7225 2.1175 3.3825 1.4375 4.0625 C0.7775 4.0625 0.1175 4.0625 -0.5625 4.0625 C-4.32210806 7.82210806 -5.15144145 10.82150345 -5.5625 16.0625 C-5.8925 16.0625 -6.2225 16.0625 -6.5625 16.0625 C-6.91213286 10.23528563 -6.75889756 6.17673609 -3.5625 1.0625 C-2.5625 0.0625 -2.5625 0.0625 0 0 Z " fill="#AF8FD9" transform="translate(335.5625,168.9375)"/>
<path d="M0 0 C2.64 0.33 5.28 0.66 8 1 C7.06725891 2.12894876 6.12859878 3.25300876 5.1875 4.375 C4.66542969 5.00148437 4.14335937 5.62796875 3.60546875 6.2734375 C2 8 2 8 -1 10 C-2.46726798 6.18510326 -1.43336419 3.70988378 0 0 Z " fill="#9B78C9" transform="translate(310,208)"/>
<path d="M0 0 C1.74028734 3.10765596 2.51314066 5.9363049 3.125 9.4375 C3.29257813 10.36433594 3.46015625 11.29117187 3.6328125 12.24609375 C3.98273843 14.87053825 4.06716891 17.35642353 4 20 C1.51737568 17.51737568 0.92713025 15.38224713 -0.1875 12.0625 C-0.55230469 11.00160156 -0.91710937 9.94070313 -1.29296875 8.84765625 C-2.1857748 5.25176889 -1.15356447 3.46069341 0 0 Z " fill="#E6D5F7" transform="translate(208,388)"/>
<path d="M0 0 C0.66 0.99 1.32 1.98 2 3 C1.34 3 0.68 3 0 3 C0.20109375 3.56332031 0.4021875 4.12664062 0.609375 4.70703125 C1.10486035 7.61553024 0.46541967 9.02326486 -0.75 11.6875 C-1.09546875 12.47511719 -1.4409375 13.26273437 -1.796875 14.07421875 C-3 16 -3 16 -6 17 C-4.33846988 11.14340094 -2.52958084 5.5409866 0 0 Z " fill="#9E84C5" transform="translate(246,311)"/>
<path d="M0 0 C0 0.66 0 1.32 0 2 C-3.3 2.33 -6.6 2.66 -10 3 C-10 3.66 -10 4.32 -10 5 C-12.97 4.505 -12.97 4.505 -16 4 C-15 2 -15 2 -13.0625 0.875 C-8.70255107 -0.37069969 -4.50398419 -0.15742081 0 0 Z " fill="#A488CE" transform="translate(286,281)"/>
<path d="M0 0 C0.66 0 1.32 0 2 0 C2 0.66 2 1.32 2 2 C5.3 2.66 8.6 3.32 12 4 C12 4.66 12 5.32 12 6 C6.32723489 6.29341888 3.00932754 6.00559652 -2 3 C-1.34 2.67 -0.68 2.34 0 2 C0 1.34 0 0.68 0 0 Z " fill="#A98DD3" transform="translate(318,208)"/>
<path d="M0 0 C6.19847328 -0.59600705 6.19847328 -0.59600705 9.4375 1.8125 C11.73197952 6.49323823 11.32289645 10.87850352 11 16 C10.67 16 10.34 16 10 16 C10 13.03 10 10.06 10 7 C9.34 7 8.68 7 8 7 C8 5.68 8 4.36 8 3 C5.03 2.67 2.06 2.34 -1 2 C-0.67 1.34 -0.34 0.68 0 0 Z " fill="#AB8CD2" transform="translate(291,201)"/>
<path d="M0 0 C3.18873549 -0.35430394 4.61589191 -0.25953249 7.3125 1.5625 C9.56398777 4.814649 9.29754384 7.13193005 9 11 C8.67 11 8.34 11 8 11 C8 9.35 8 7.7 8 6 C7.34 6 6.68 6 6 6 C6 5.34 6 4.68 6 4 C3.69 3.34 1.38 2.68 -1 2 C-0.67 1.34 -0.34 0.68 0 0 Z " fill="#B390DF" transform="translate(315,180)"/>
<path d="M0 0 C0.33 0.99 0.66 1.98 1 3 C0.05125 3.165 -0.8975 3.33 -1.875 3.5 C-5.08126412 4.62222102 -5.08126412 4.62222102 -5.84375 6.9140625 C-6.32618625 8.92184864 -6.67119562 10.96141284 -7 13 C-7.33 13 -7.66 13 -8 13 C-8.48590022 5.8329718 -8.48590022 5.8329718 -6.25 2 C-4 0 -4 0 0 0 Z " fill="#B594D9" transform="translate(269,97)"/>
<path d="M0 0 C0.33 0 0.66 0 1 0 C1 2.64 1 5.28 1 8 C-0.32 8.33 -1.64 8.66 -3 9 C-3.33 12.63 -3.66 16.26 -4 20 C-4.33 20 -4.66 20 -5 20 C-5.33 16.04 -5.66 12.08 -6 8 C-4.68 7.34 -3.36 6.68 -2 6 C-1.34 6.33 -0.68 6.66 0 7 C0 4.69 0 2.38 0 0 Z " fill="#E2D1F5" transform="translate(243,270)"/>
<path d="M0 0 C0.65234375 1.734375 0.65234375 1.734375 1 4 C0.00390625 6.140625 0.00390625 6.140625 -1.4375 8.25 C-1.91058594 8.95640625 -2.38367188 9.6628125 -2.87109375 10.390625 C-3.24363281 10.92171875 -3.61617188 11.4528125 -4 12 C-4.99 10.68 -5.98 9.36 -7 8 C-5.46807598 6.46807598 -3.93672998 4.93916344 -2.375 3.4375 C-0.89066489 2.027224 -0.89066489 2.027224 0 0 Z " fill="#F0E1F9" transform="translate(269,263)"/>
<path d="M0 0 C1.32 0.66 2.64 1.32 4 2 C3.01 4.64 2.02 7.28 1 10 C0.67 9.01 0.34 8.02 0 7 C-0.66 7 -1.32 7 -2 7 C-2 5.35 -2 3.7 -2 2 C-1.34 2 -0.68 2 0 2 C0 1.34 0 0.68 0 0 Z " fill="#F2E3F8" transform="translate(164,174)"/>
<path d="M0 0 C0.66 0.66 1.32 1.32 2 2 C3.31747324 2.69748583 4.64914193 3.36959957 6 4 C4.68 4 3.36 4 2 4 C2 4.66 2 5.32 2 6 C0.35 6 -1.3 6 -3 6 C-2.42655063 3.13275314 -2.1385485 2.1385485 0 0 Z M5 1 C5.66 1 6.32 1 7 1 C6.67 1.66 6.34 2.32 6 3 C5.67 2.34 5.34 1.68 5 1 Z " fill="#9674CB" transform="translate(274,264)"/>
<path d="M0 0 C1.12758089 3.38274266 0.81750262 4.76778223 0.0625 8.1875 C-0.13214844 9.08855469 -0.32679688 9.98960937 -0.52734375 10.91796875 C-0.68332031 11.60503906 -0.83929688 12.29210937 -1 13 C-1.99 12.67 -2.98 12.34 -4 12 C-3.45660208 7.43545749 -2.20536179 4.0271824 0 0 Z " fill="#AB93D1" transform="translate(170,170)"/>
<path d="M0 0 C0.66 0 1.32 0 2 0 C1.42865502 3.3138009 0.50248134 4.78626651 -2 7 C-2.515625 7.556875 -3.03125 8.11375 -3.5625 8.6875 C-5 10 -5 10 -7 10 C-6.67 8.68 -6.34 7.36 -6 6 C-5.67 6.33 -5.34 6.66 -5 7 C-4.66226562 6.4946875 -4.32453125 5.989375 -3.9765625 5.46875 C-3.30753906 4.49421875 -3.30753906 4.49421875 -2.625 3.5 C-2.18414062 2.8503125 -1.74328125 2.200625 -1.2890625 1.53125 C-0.65097656 0.77328125 -0.65097656 0.77328125 0 0 Z " fill="#B493DA" transform="translate(346,165)"/>
<path d="M0 0 C0 3 0 3 -2.1875 5.375 C-3.115625 6.24125 -4.04375 7.1075 -5 8 C-5.928125 8.928125 -6.85625 9.85625 -7.8125 10.8125 C-8.534375 11.534375 -9.25625 12.25625 -10 13 C-10.66 12.67 -11.32 12.34 -12 12 C-8.04 8.04 -4.08 4.08 0 0 Z " fill="#EEDEFB" transform="translate(289,346)"/>
<path d="M0 0 C0.66 0 1.32 0 2 0 C2 0.66 2 1.32 2 2 C-3.1468192 5.16727335 -7.158256 5.35050464 -13 5 C-10.58112915 2.58112915 -9.25907651 2.50623037 -5.9375 1.9375 C-2.66916048 1.58972434 -2.66916048 1.58972434 0 0 Z " fill="#957BBF" transform="translate(277,304)"/>
<path d="M0 0 C1.98 0.99 1.98 0.99 4 2 C4 2.66 4 3.32 4 4 C4.66 4 5.32 4 6 4 C7.85776765 7.13498292 8.20140476 9.37471432 8 13 C5.81302498 10.20375042 4.00847187 7.36692128 2.3125 4.25 C1.65701172 3.05117188 1.65701172 3.05117188 0.98828125 1.828125 C0.49908203 0.92320312 0.49908203 0.92320312 0 0 Z " fill="#A087C6" transform="translate(147,294)"/>
<path d="M0 0 C0.99 0.33 1.98 0.66 3 1 C2.85691406 1.68449219 2.71382812 2.36898437 2.56640625 3.07421875 C1.93988262 6.31053736 1.43130921 9.55335919 0.9375 12.8125 C0.76089844 13.97394531 0.58429688 15.13539063 0.40234375 16.33203125 C0.26957031 17.21246094 0.13679687 18.09289062 0 19 C-0.33 19 -0.66 19 -1 19 C-0.67 12.73 -0.34 6.46 0 0 Z " fill="#A082C9" transform="translate(157,208)"/>
<path d="M0 0 C2.98704569 0.49784095 4.39324263 1.26216175 7 3 C3.98968256 3.93423645 3.13349732 4.04449911 0 3 C-0.33 3.99 -0.66 4.98 -1 6 C-1.66 6 -2.32 6 -3 6 C-1.125 1.125 -1.125 1.125 0 0 Z " fill="#F0DDF9" transform="translate(315,211)"/>
<path d="M0 0 C0.66 0.33 1.32 0.66 2 1 C2.6328125 3.28515625 2.6328125 3.28515625 3.125 6.0625 C3.29257812 6.98160156 3.46015625 7.90070313 3.6328125 8.84765625 C3.75398438 9.55792969 3.87515625 10.26820313 4 11 C3.34 11 2.68 11 2 11 C-0.04169485 8.09451118 -1 6.59857954 -1 3 C-0.67 2.01 -0.34 1.02 0 0 Z " fill="#B297D9" transform="translate(259,269)"/>
<path d="M0 0 C3.33773709 3.64116773 3.97864902 7.28607242 5 12 C4.34 12 3.68 12 3 12 C3 10.68 3 9.36 3 8 C2.01 8 1.02 8 0 8 C0 5.36 0 2.72 0 0 Z " fill="#B491E5" transform="translate(226,168)"/>
<path d="M0 0 C1.32 0 2.64 0 4 0 C3 3 3 3 1 4 C-1.04055005 4.07065617 -3.08334257 4.08421976 -5.125 4.0625 C-6.22070312 4.05347656 -7.31640625 4.04445313 -8.4453125 4.03515625 C-9.70988281 4.01775391 -9.70988281 4.01775391 -11 4 C-11 3.67 -11 3.34 -11 3 C-10.37351562 2.95101562 -9.74703125 2.90203125 -9.1015625 2.8515625 C-8.28429687 2.77679688 -7.46703125 2.70203125 -6.625 2.625 C-5.81289063 2.55539063 -5.00078125 2.48578125 -4.1640625 2.4140625 C-1.79665809 2.17107412 -1.79665809 2.17107412 0 0 Z " fill="#A680D3" transform="translate(282,117)"/>
<path d="M0 0 C0.33 0 0.66 0 1 0 C1.81128636 3.02880243 2.32069107 4.93791755 2 8 C0.02819274 11.05578508 -2.35341873 13.51841756 -5 16 C-5.66 15.67 -6.32 15.34 -7 15 C-6.21625 14.38125 -5.4325 13.7625 -4.625 13.125 C-0.94662674 9.52998931 -0.63869794 4.90939462 0 0 Z " fill="#E7D3F7" transform="translate(248,214)"/>
<path d="M0 0 C0.99 0.33 1.98 0.66 3 1 C0.65592898 4.51610654 -1.16854912 5.35794962 -5 7 C-5.99 7 -6.98 7 -8 7 C-6.83834008 4.67668015 -5.70377714 3.84307642 -3.625 2.3125 C-3.01914063 1.85488281 -2.41328125 1.39726562 -1.7890625 0.92578125 C-0.90347656 0.46751953 -0.90347656 0.46751953 0 0 Z " fill="#AB8DD5" transform="translate(232,211)"/>
<path d="M0 0 C0.66 0 1.32 0 2 0 C1.69128878 1.79232337 1.37790936 3.58384321 1.0625 5.375 C0.88847656 6.37273437 0.71445313 7.37046875 0.53515625 8.3984375 C0 11 0 11 -1 13 C-1.66 13 -2.32 13 -3 13 C-2.01 8.71 -1.02 4.42 0 0 Z " fill="#9C7EC3" transform="translate(226,203)"/>
<path d="M0 0 C0.66 0.99 1.32 1.98 2 3 C1.34 3.66 0.68 4.32 0 5 C-0.6425235 7.06874034 -0.6425235 7.06874034 -1 9 C-1.99 9 -2.98 9 -4 9 C-3.46930939 5.17902761 -2.50298434 2.93828597 0 0 Z " fill="#AE8ED8" transform="translate(313,182)"/>
<path d="M0 0 C0.66 0.33 1.32 0.66 2 1 C-2.72194167 4.77755334 -7.25928072 4.30096975 -13 4 C-12.67 3.34 -12.34 2.68 -12 2 C-11.13375 2.04125 -10.2675 2.0825 -9.375 2.125 C-5.87646457 1.99542461 -3.28890864 1.12121885 0 0 Z " fill="#A582D1" transform="translate(272,140)"/>
<path d="M0 0 C0.33 1.32 0.66 2.64 1 4 C3.97 4.495 3.97 4.495 7 5 C7 5.33 7 5.66 7 6 C3.37 6.33 -0.26 6.66 -4 7 C-2.68 4.69 -1.36 2.38 0 0 Z " fill="#EDD5FC" transform="translate(268,123)"/>
<path d="M0 0 C-0.99 0.495 -0.99 0.495 -2 1 C-2.33 1.66 -2.66 2.32 -3 3 C-3.66 3 -4.32 3 -5 3 C-6.70680947 4.62553283 -8.37660195 6.29115995 -10 8 C-9.64505955 5.37344067 -9.27538036 3.42031739 -7.8125 1.1875 C-5.20638339 -0.51995571 -3.0400645 -0.20267097 0 0 Z " fill="#B895E0" transform="translate(254,116)"/>
<path d="M0 0 C0.33 0 0.66 0 1 0 C1 2.31 1 4.62 1 7 C-0.98 7.99 -0.98 7.99 -3 9 C-2.67 6.69 -2.34 4.38 -2 2 C-1.34 2 -0.68 2 0 2 C0 1.34 0 0.68 0 0 Z " fill="#9E81CD" transform="translate(167,180)"/>
<path d="M0 0 C-0.99 0.66 -1.98 1.32 -3 2 C-4.2375 3.0828125 -4.2375 3.0828125 -5.5 4.1875 C-6.7375 5.0846875 -6.7375 5.0846875 -8 6 C-8.99 5.67 -9.98 5.34 -11 5 C-7.17906575 1.05170128 -5.52310605 -0.1453449 0 0 Z " fill="#B898DD" transform="translate(289,92)"/>
<path d="M0 0 C-2.05233685 2.2477975 -3.00667261 3.0022242 -6 4 C-8.1875 2.5625 -8.1875 2.5625 -10 1 C-6.52674819 -0.1577506 -3.63932552 -0.06866652 0 0 Z " fill="#A38ECE" transform="translate(333,315)"/>
<path d="M0 0 C0.99 0.33 1.98 0.66 3 1 C0.75 3.5 0.75 3.5 -2 6 C-3.32 6 -4.64 6 -6 6 C-6 5.34 -6 4.68 -6 4 C-5.38125 3.896875 -4.7625 3.79375 -4.125 3.6875 C-1.63473516 3.12474627 -1.63473516 3.12474627 0 0 Z " fill="#9F83C5" transform="translate(287,291)"/>
<path d="M0 0 C0 0.33 0 0.66 0 1 C-1.175625 1.0928125 -1.175625 1.0928125 -2.375 1.1875 C-3.24125 1.455625 -4.1075 1.72375 -5 2 C-6.15521502 4.47130918 -6.15521502 4.47130918 -7 7 C-7.99 7.33 -8.98 7.66 -10 8 C-9.64505955 5.37344067 -9.27538036 3.42031739 -7.8125 1.1875 C-5.20638339 -0.51995571 -3.0400645 -0.20267097 0 0 Z " fill="#B096D3" transform="translate(254,262)"/>
<path d="M0 0 C2.64 0.33 5.28 0.66 8 1 C6.8125 2.5 6.8125 2.5 5 4 C2.3125 4.1875 2.3125 4.1875 0 4 C0 2.68 0 1.36 0 0 Z " fill="#A07DCD" transform="translate(241,195)"/>
<path d="M0 0 C0.99386719 0.00902344 1.98773438 0.01804688 3.01171875 0.02734375 C4.15060547 0.04474609 4.15060547 0.04474609 5.3125 0.0625 C5.3125 0.3925 5.3125 0.7225 5.3125 1.0625 C3.54493706 1.45262425 1.77325217 1.8241098 0 2.1875 C-0.98613281 2.39632812 -1.97226563 2.60515625 -2.98828125 2.8203125 C-5.6875 3.0625 -5.6875 3.0625 -8.6875 1.0625 C-5.53819107 0.01273036 -3.29935544 -0.03881595 0 0 Z " fill="#AF8FD8" transform="translate(250.6875,177.9375)"/>
<path d="M0 0 C2.97 0.495 2.97 0.495 6 1 C5.625 3.4375 5.625 3.4375 5 6 C4.01 6.495 4.01 6.495 3 7 C3 6.01 3 5.02 3 4 C2.34 3.67 1.68 3.34 1 3 C0.67 2.01 0.34 1.02 0 0 Z " fill="#A889CD" transform="translate(236,167)"/>
<path d="M0 0 C0.33 0 0.66 0 1 0 C1.12375 1.03125 1.2475 2.0625 1.375 3.125 C1.87728298 6.94769636 1.87728298 6.94769636 3.125 10.25 C4 13 4 13 3 16 C0.1647887 10.4477112 -0.37952295 6.19887485 0 0 Z " fill="#B797DA" transform="translate(228,144)"/>
<path d="M0 0 C0.33 0 0.66 0 1 0 C1 3.3 1 6.6 1 10 C0.34 10 -0.32 10 -1 10 C-2.25 3.375 -2.25 3.375 0 0 Z " fill="#8B78B3" transform="translate(228,452)"/>
<path d="M0 0 C1.40907283 2.81814566 0.50872691 4.17277204 -0.4375 7.125 C-0.72496094 8.03507812 -1.01242188 8.94515625 -1.30859375 9.8828125 C-1.53675781 10.58148438 -1.76492187 11.28015625 -2 12 C-4.046875 8.28125 -4.046875 8.28125 -3.625 5.75 C-3.41875 5.1725 -3.2125 4.595 -3 4 C-2.34 4 -1.68 4 -1 4 C-0.67 2.68 -0.34 1.36 0 0 Z " fill="#9F87C5" transform="translate(237,422)"/>
<path d="M0 0 C0.66 0 1.32 0 2 0 C2.1875 3.375 2.1875 3.375 2 7 C1.01 7.66 0.02 8.32 -1 9 C-0.67 6.03 -0.34 3.06 0 0 Z " fill="#9B84C0" transform="translate(233,402)"/>
<path d="M0 0 C-1.78147298 1.78147298 -4.45879772 1.337761 -6.875 1.5 C-10.18718188 1.72347251 -12.84376196 1.94792065 -16 3 C-15.67 2.01 -15.34 1.02 -15 0 C-12.87562788 -0.19448477 -10.75046809 -0.38038289 -8.625 -0.5625 C-7.44164062 -0.66691406 -6.25828125 -0.77132812 -5.0390625 -0.87890625 C-2 -1 -2 -1 0 0 Z " fill="#E0CDF4" transform="translate(245,200)"/>
<path d="M0 0 C2.64 0 5.28 0 8 0 C8 0.66 8 1.32 8 2 C8.66 2.33 9.32 2.66 10 3 C6.37 2.67 2.74 2.34 -1 2 C-0.67 1.34 -0.34 0.68 0 0 Z " fill="#B594DA" transform="translate(214,163)"/>
<path d="M0 0 C3.63 0.33 7.26 0.66 11 1 C11 1.33 11 1.66 11 2 C6.71 2.66 2.42 3.32 -2 4 C-1.34 2.68 -0.68 1.36 0 0 Z " fill="#E4D2F5" transform="translate(256,143)"/>
<path d="M0 0 C1.24546405 2.49092811 0.7767578 3.41080733 0 6 C-1.98 6 -3.96 6 -6 6 C-6 5.34 -6 4.68 -6 4 C-5.34 4 -4.68 4 -4 4 C-3.67 3.34 -3.34 2.68 -3 2 C-2.01 1.34 -1.02 0.68 0 0 Z " fill="#A47BD4" transform="translate(255,139)"/>
<path d="M0 0 C0.763125 0.309375 1.52625 0.61875 2.3125 0.9375 C4.18789677 1.67893593 6.08684652 2.36228217 8 3 C7.67 3.99 7.34 4.98 7 6 C6.01 6 5.02 6 4 6 C1.8125 3 1.8125 3 0 0 Z " fill="#B2A1CC" transform="translate(101,234)"/>
<path d="M0 0 C2.97 0.495 2.97 0.495 6 1 C5.34 2.32 4.68 3.64 4 5 C2.66666667 5 1.33333333 5 0 5 C0 3.35 0 1.7 0 0 Z " fill="#A37FD5" transform="translate(264,119)"/>
<path d="M0 0 C0.99 0.33 1.98 0.66 3 1 C2.01 4.3 1.02 7.6 0 11 C-0.66 9.68 -1.32 8.36 -2 7 C-1.34 7 -0.68 7 0 7 C0 4.69 0 2.38 0 0 Z " fill="#A68CC8" transform="translate(246,324)"/>
<path d="M0 0 C-0.33 1.65 -0.66 3.3 -1 5 C-2.32 4.34 -3.64 3.68 -5 3 C-5 2.34 -5 1.68 -5 1 C-3 0 -3 0 0 0 Z M-4 5 C-2 6 -2 6 -2 6 Z " fill="#DED0EE" transform="translate(337,313)"/>
<path d="M0 0 C1.875 0.625 1.875 0.625 4 2 C5.25 5.125 5.25 5.125 6 8 C5.01 8 4.02 8 3 8 C0.19744677 5.0936485 0 4.21174952 0 0 Z " fill="#937ABD" transform="translate(242,294)"/>
<path d="M0 0 C0.66 0.66 1.32 1.32 2 2 C0.35 3.98 -1.3 5.96 -3 8 C-4.03348696 4.89953913 -4.17755913 3.94389782 -3 1 C-2.01 0.67 -1.02 0.34 0 0 Z " fill="#EAD7FB" transform="translate(220,248)"/>
<path d="M0 0 C0.66 0.99 1.32 1.98 2 3 C1.34 3 0.68 3 0 3 C0.33 4.32 0.66 5.64 1 7 C-0.98 7.99 -0.98 7.99 -3 9 C-2.01 6.03 -1.02 3.06 0 0 Z " fill="#AC97CF" transform="translate(246,311)"/>
<path d="M0 0 C-1 3 -1 3 -2.6875 4.1875 C-5.54969093 5.19313465 -7.98827908 5.13689641 -11 5 C-10.443125 4.731875 -9.88625 4.46375 -9.3125 4.1875 C-6.91066602 2.99300335 -6.91066602 2.99300335 -4.375 1.375 C-2 0 -2 0 0 0 Z " fill="#9982BF" transform="translate(227,274)"/>
<path d="M0 0 C3.37503669 1.1858237 5.64722731 2.27573689 8 5 C7.34 5.66 6.68 6.32 6 7 C4.02 4.69 2.04 2.38 0 0 Z " fill="#A691C9" transform="translate(192,270)"/>
<path d="M0 0 C2.5625 2.25 2.5625 2.25 5 5 C4.8125 7.3125 4.8125 7.3125 4 9 C4 8.01 4 7.02 4 6 C3.01 5.67 2.02 5.34 1 5 C0.67 3.35 0.34 1.7 0 0 Z " fill="#B193D1" transform="translate(276,230)"/>
<path d="M0 0 C2.31 0 4.62 0 7 0 C4.44008376 2.01136276 1.95409701 3.62845496 -1 5 C-0.67 3.35 -0.34 1.7 0 0 Z " fill="#AA89D3" transform="translate(268,229)"/>
<path d="M0 0 C0 3.51716303 -0.82445585 4.37121748 -3 7 C-4.32 6.67 -5.64 6.34 -7 6 C-4.69 4.02 -2.38 2.04 0 0 Z " fill="#F0DDFC" transform="translate(354,173)"/>
<path d="M0 0 C0 3 0 3 -2.5 5.6875 C-3.325 6.450625 -4.15 7.21375 -5 8 C-5.66 7.67 -6.32 7.34 -7 7 C-4.69 4.69 -2.38 2.38 0 0 Z " fill="#9E89C4" transform="translate(266,346)"/>
<path d="M0 0 C1.32 0.33 2.64 0.66 4 1 C3.01 1.66 2.02 2.32 1 3 C-0.68615782 4.64694485 -2.35570171 6.31126121 -4 8 C-2.87548273 5.0280615 -1.77706209 2.66559313 0 0 Z " fill="#E9D5F8" transform="translate(276,269)"/>
<path d="M0 0 C0.66 0 1.32 0 2 0 C2.125 3.375 2.125 3.375 2 7 C1.34 7.66 0.68 8.32 0 9 C0.33 7.35 0.66 5.7 1 4 C0.34 4 -0.32 4 -1 4 C-0.67 2.68 -0.34 1.36 0 0 Z " fill="#A88CCC" transform="translate(227,199)"/>
<path d="M0 0 C0.66 0 1.32 0 2 0 C2 1.98 2 3.96 2 6 C0.68 5.67 -0.64 5.34 -2 5 C-2 4.01 -2 3.02 -2 2 C-1.34 2 -0.68 2 0 2 C0 1.34 0 0.68 0 0 Z " fill="#9F81C9" transform="translate(220,189)"/>
<path d="M0 0 C0.66 1.32 1.32 2.64 2 4 C1.07451225 6.69933926 0.57626463 7.71186768 -2 9 C-1.34 6.03 -0.68 3.06 0 0 Z " fill="#E9D1FA" transform="translate(239,174)"/>
<path d="M0 0 C0.99 0 1.98 0 3 0 C3 0.66 3 1.32 3 2 C2.01 2.66 1.02 3.32 0 4 C-1.19232613 6.05003955 -1.19232613 6.05003955 -2 8 C-3 5 -3 5 -1.75 2.3125 C-1.1725 1.549375 -0.595 0.78625 0 0 Z " fill="#B08FD6" transform="translate(277,98)"/>
</svg>
