<?xml version="1.0" standalone="no"?> <!DOCTYPE svg PUBLIC "-//W3C//DTD SVG 20010904//EN" "http://www.w3.org/TR/2001/REC-SVG-20010904/DTD/svg10.dtd"> <svg version="1.0" xmlns="http://www.w3.org/2000/svg" width="1788.000000pt" height="2236.000000pt" viewBox="0 0 1788.000000 2236.000000" preserveAspectRatio="xMidYMid meet"> <g transform="translate(0.000000,2236.000000) scale(0.100000,-0.100000)" fill="#9c39fe" stroke="none"> <path d="M1384 12255 c-2 -5 -3 -619 -1 -1363 l2 -1353 920 0 920 0 0 143 0 143 -725 -3 c-399 -2 -740 -6 -757 -9 -24 -4 -33 -1 -34 8 0 8 -1 561 -2 1229 l-2 1215 -159 0 c-97 0 -160 -4 -162 -10z"/> <path d="M7045 11664 c-22 -2 -74 -10 -115 -18 -41 -8 -96 -18 -122 -21 -26 -3 -50 -11 -54 -16 -3 -6 -43 -28 -87 -50 -128 -62 -138 -69 -156 -100 -12 -22 -22 -29 -41 -27 -28 3 -28 5 -12 108 14 93 17 91 -167 88 l-156 -3 -5 -1030 c-3 -566 -3 -1036 -1 -1043 7 -24 36 -29 98 -19 44 8 82 8 125 0 37 -6 73 -6 88 -1 l25 8 -3 803 -4 802 49 41 c86 72 152 114 181 114 15 0 43 8 62 18 19 11 54 22 78 26 24 3 54 13 67 22 35 23 307 25 332 2 10 -9 32 -20 48 -24 26 -7 55 -20 152 -73 27 -14 82 -71 83 -84 0 -5 16 -28 35 -51 19 -24 38 -58 41 -77 4 -19 14 -45 23 -59 14 -22 16 -99 18 -735 2 -390 3 -712 3 -715 0 -16 63 -28 98 -18 22 6 74 8 128 4 96 -7 131 4 118 39 -3 8 -7 301 -8 652 -2 649 -8 779 -41 843 -16 31 -19 69 -7 85 12 17 80 65 91 65 6 0 15 9 21 19 5 11 20 23 32 27 13 3 30 12 38 19 8 7 31 16 50 20 19 4 44 14 55 21 11 8 29 14 40 14 11 0 38 10 60 22 60 33 292 33 345 0 19 -12 43 -22 53 -22 11 0 31 -6 45 -14 15 -8 39 -17 54 -21 44 -9 228 -201 228 -237 0 -7 7 -23 15 -35 38 -54 46 -210 44 -861 -1 -343 2 -626 6 -630 11 -11 315 -9 323 3 15 22 -4 1273 -21 1418 -17 134 -42 211 -78 233 -5 3 -9 17 -9 31 0 67 -214 305 -286 319 -19 3 -37 10 -40 15 -3 5 -20 16 -37 24 -18 9 -43 22 -57 30 -14 8 -41 15 -61 15 -20 0 -56 7 -80 16 -66 25 -336 25 -402 1 -26 -9 -67 -17 -90 -17 -28 0 -61 -10 -97 -30 -30 -17 -90 -47 -132 -67 -49 -23 -80 -45 -87 -60 -6 -13 -25 -32 -41 -41 -17 -9 -32 -24 -35 -32 -3 -8 -17 -23 -32 -32 -27 -16 -27 -16 -80 38 -29 29 -53 58 -53 64 0 12 -62 52 -150 98 -36 18 -76 40 -90 47 -14 8 -41 15 -61 15 -20 0 -52 6 -70 14 -34 14 -211 26 -284 20z"/> <path d="M10725 11654 c-27 -7 -84 -19 -125 -25 -60 -10 -83 -19 -116 -46 -27 -22 -52 -33 -73 -33 -18 0 -39 -8 -51 -20 -11 -11 -24 -20 -30 -20 -45 0 -340 -312 -340 -359 0 -5 -11 -20 -25 -35 -14 -15 -25 -37 -25 -50 0 -13 -7 -29 -15 -36 -8 -7 -17 -28 -20 -49 -4 -20 -12 -52 -20 -71 -7 -19 -16 -62 -19 -95 -3 -33 -12 -80 -21 -104 -17 -48 -19 -130 -4 -206 5 -27 14 -84 20 -125 5 -41 16 -91 24 -110 7 -19 16 -48 20 -65 9 -42 51 -129 70 -145 8 -7 15 -18 15 -25 0 -7 7 -18 15 -25 8 -7 15 -20 15 -29 0 -9 20 -39 45 -66 102 -114 151 -165 161 -165 6 0 21 -11 34 -25 13 -14 30 -25 38 -25 8 0 36 -18 62 -40 26 -22 57 -40 69 -40 12 0 38 -9 58 -20 21 -11 49 -20 62 -20 13 0 32 -6 40 -14 77 -69 517 -70 643 -1 14 8 40 15 57 15 18 0 49 9 71 20 22 11 50 20 63 20 13 0 36 11 51 25 15 14 31 25 37 25 5 0 31 15 57 33 26 18 59 38 75 45 15 6 27 16 27 21 0 5 36 39 80 75 44 37 80 72 80 78 0 14 -50 68 -62 68 -4 0 -23 15 -41 34 -17 18 -51 46 -75 61 l-42 28 -81 -81 c-45 -45 -91 -84 -102 -88 -26 -8 -79 -44 -90 -61 -4 -6 -22 -14 -40 -18 -17 -4 -41 -13 -52 -19 -66 -42 -542 -41 -576 0 -6 8 -19 14 -29 14 -9 0 -28 8 -41 19 -13 10 -50 33 -81 51 -32 17 -58 36 -58 41 0 5 -5 9 -11 9 -24 0 -179 177 -186 212 -3 16 -12 32 -19 35 -6 2 -15 16 -19 30 -3 15 -15 38 -26 51 -10 14 -19 31 -19 38 0 7 -9 31 -20 53 -20 36 -20 84 -1 95 3 2 56 0 117 -5 61 -5 437 -11 835 -13 398 -2 735 -4 748 -5 50 -2 54 11 49 176 -4 118 -8 157 -20 170 -8 10 -18 44 -22 76 -3 32 -13 71 -20 86 -8 15 -17 45 -21 66 -4 22 -13 47 -20 55 -7 8 -16 26 -20 40 -4 14 -18 35 -30 48 -13 13 -32 42 -44 65 -45 94 -278 297 -340 297 -7 0 -31 15 -51 34 -31 28 -49 35 -97 40 -32 4 -80 13 -108 21 -69 21 -323 27 -390 9z m333 -262 c40 -5 80 -16 90 -25 9 -8 31 -19 47 -23 17 -3 37 -12 45 -19 8 -7 26 -16 40 -20 28 -8 180 -153 180 -172 0 -6 6 -18 14 -26 8 -8 21 -30 30 -51 8 -20 20 -36 25 -36 6 0 13 -17 17 -37 3 -21 13 -49 22 -63 11 -17 16 -49 17 -103 l0 -77 -714 -1 c-767 -2 -738 -4 -720 50 21 67 42 117 54 131 7 8 16 26 20 40 4 14 16 41 26 60 11 19 19 39 19 45 0 5 25 35 56 65 31 30 60 63 65 73 5 9 15 17 22 17 7 0 30 18 52 40 21 21 52 42 69 46 17 3 38 12 46 19 8 7 26 16 40 20 14 4 33 14 42 22 10 9 50 19 93 23 42 4 79 11 83 14 7 8 106 3 220 -12z"/> <path d="M15334 11661 c-29 -5 -56 -11 -62 -15 -5 -3 -41 -10 -80 -16 -50 -7 -88 -20 -130 -45 -33 -19 -65 -35 -71 -35 -23 0 -117 -55 -148 -87 -18 -18 -38 -33 -44 -33 -13 0 -179 -165 -179 -179 0 -9 -83 -136 -106 -162 -8 -8 -14 -23 -14 -33 0 -9 -7 -27 -15 -40 -8 -12 -19 -42 -24 -67 -5 -24 -16 -69 -25 -99 -9 -30 -16 -70 -16 -88 0 -18 -7 -49 -15 -69 -20 -48 -20 -192 0 -219 8 -10 15 -33 15 -51 0 -18 7 -52 15 -77 8 -24 20 -67 25 -95 5 -28 19 -71 30 -95 11 -25 20 -48 20 -52 0 -3 13 -23 28 -43 16 -20 43 -62 61 -94 28 -48 70 -100 163 -195 7 -7 49 -36 93 -65 44 -28 83 -56 87 -61 9 -13 95 -44 171 -61 32 -7 64 -18 71 -24 87 -72 495 -69 601 5 11 8 37 14 58 14 21 0 58 11 85 25 26 14 55 25 66 25 10 0 38 18 62 40 24 22 50 40 57 40 8 0 22 9 32 20 34 38 48 8 42 -90 -3 -48 -2 -91 1 -97 10 -14 320 -4 324 11 2 6 1 88 -2 181 -3 94 -3 553 0 1020 3 468 3 856 1 863 -5 20 -317 17 -325 -3 -3 -8 -3 -51 1 -95 7 -99 -7 -112 -65 -59 -56 52 -98 79 -134 86 -18 3 -40 11 -48 18 -38 30 -112 56 -185 66 -44 5 -93 14 -110 20 -39 14 -246 20 -311 10z m367 -297 c8 -7 38 -17 65 -20 27 -4 61 -13 76 -20 15 -8 36 -14 48 -14 26 0 112 -45 168 -87 24 -18 49 -33 56 -33 7 0 25 -11 40 -25 l28 -26 3 -547 3 -547 -50 -47 c-29 -28 -60 -48 -73 -48 -12 0 -34 -9 -48 -20 -14 -11 -32 -20 -41 -20 -8 0 -24 -9 -34 -20 -10 -11 -39 -24 -65 -29 -26 -4 -54 -15 -63 -22 -33 -27 -492 -19 -581 10 -40 13 -78 30 -84 37 -6 8 -17 14 -24 14 -7 0 -18 7 -25 15 -7 8 -34 27 -60 41 -26 14 -60 43 -76 63 -15 21 -40 45 -56 54 -15 8 -34 31 -43 49 -25 54 -49 92 -63 101 -60 39 -118 416 -78 511 9 21 19 64 23 95 3 31 14 67 23 81 30 46 40 65 55 96 7 17 21 36 29 44 9 7 16 17 16 22 0 14 118 125 150 143 14 7 43 29 64 48 26 24 51 37 81 41 23 4 51 13 61 21 11 8 33 15 50 15 17 0 42 9 56 19 32 25 76 30 228 24 89 -3 129 -8 141 -19z"/> <path d="M3628 11629 c-12 -8 -11 -1336 2 -1424 9 -67 26 -118 53 -155 9 -13 17 -34 17 -45 0 -11 9 -38 20 -60 11 -22 20 -46 20 -53 0 -8 20 -34 45 -59 25 -24 45 -49 45 -54 0 -14 56 -69 70 -69 6 0 31 -20 57 -45 25 -25 55 -45 66 -45 11 0 28 -7 37 -15 9 -8 39 -18 66 -21 27 -4 56 -12 64 -19 81 -68 559 -68 640 0 8 7 35 15 59 19 24 4 56 13 72 21 15 8 37 15 48 15 11 0 43 20 71 45 28 25 56 45 62 45 7 0 22 10 34 21 45 42 58 21 50 -82 -4 -54 -3 -96 3 -102 6 -8 59 -12 163 -12 l153 0 3 1048 c2 834 0 1047 -10 1048 -64 3 -310 0 -314 -4 -5 -5 -5 -1314 1 -1490 l2 -98 -49 -43 c-28 -24 -64 -47 -81 -50 -17 -3 -38 -12 -46 -20 -27 -24 -115 -66 -137 -66 -11 0 -29 -7 -40 -15 -10 -8 -40 -15 -65 -15 -25 0 -83 -5 -129 -11 -102 -14 -352 3 -387 26 -12 8 -28 15 -36 15 -32 0 -172 120 -193 165 -7 17 -29 47 -48 68 -22 23 -36 48 -36 63 0 14 -8 39 -17 57 -17 30 -18 85 -19 722 l-1 690 -24 2 c-65 6 -282 7 -291 2z"/> <path d="M12066 11633 c-17 -17 29 -116 65 -138 5 -4 9 -14 9 -24 0 -10 9 -30 20 -44 11 -14 20 -34 20 -45 0 -27 47 -118 87 -169 18 -23 33 -51 33 -62 0 -11 23 -64 52 -118 28 -54 57 -109 65 -123 7 -14 13 -31 13 -38 0 -7 12 -34 26 -60 31 -54 61 -114 134 -264 28 -59 55 -110 60 -113 4 -3 11 -20 14 -39 4 -19 13 -39 21 -46 8 -7 15 -20 15 -30 0 -9 9 -29 20 -43 11 -14 20 -29 20 -35 0 -5 8 -20 19 -33 10 -13 22 -35 26 -49 8 -30 46 -107 81 -170 14 -25 31 -58 36 -75 18 -54 51 -120 64 -128 7 -4 15 -20 19 -36 3 -16 13 -35 21 -42 8 -6 14 -26 14 -44 0 -18 7 -38 15 -45 8 -7 19 -27 23 -44 l8 -31 100 0 99 0 3 35 c2 19 10 42 17 50 7 8 17 29 21 45 3 17 15 39 25 50 21 23 58 103 59 125 0 20 30 80 58 115 12 15 22 35 22 44 0 9 9 30 20 46 11 17 20 38 20 48 0 11 9 30 20 44 11 14 20 31 20 38 0 6 9 20 20 30 11 10 20 26 20 36 0 10 14 41 30 69 17 28 30 58 30 66 0 23 27 71 45 77 8 4 15 17 15 29 0 13 9 37 20 53 11 17 20 40 20 51 0 12 6 27 14 33 8 7 18 27 22 44 3 18 15 43 25 56 11 13 19 29 19 36 0 7 7 15 14 18 8 3 18 23 22 44 3 21 12 45 19 53 7 8 18 33 24 54 6 22 23 55 39 75 16 20 33 47 37 61 4 14 13 32 20 40 7 8 15 28 19 44 4 17 25 60 47 96 21 36 39 73 39 81 0 17 44 113 62 135 7 8 21 24 31 35 27 30 51 109 37 123 -14 14 -319 9 -337 -6 -7 -5 -20 -31 -29 -56 -10 -26 -23 -54 -30 -62 -6 -8 -15 -26 -19 -40 -4 -14 -13 -32 -20 -40 -8 -8 -17 -27 -20 -43 -4 -15 -16 -44 -26 -64 -10 -21 -19 -44 -20 -53 0 -8 -13 -37 -29 -65 -37 -63 -90 -171 -90 -183 0 -5 -6 -15 -14 -21 -8 -7 -18 -27 -22 -44 -3 -18 -15 -40 -25 -50 -11 -10 -19 -23 -19 -29 0 -6 -9 -29 -19 -52 -11 -23 -31 -67 -46 -98 -14 -32 -30 -58 -35 -58 -5 0 -12 -16 -16 -35 -3 -19 -12 -39 -19 -45 -8 -6 -17 -30 -20 -52 -4 -23 -22 -61 -41 -85 -19 -25 -34 -52 -34 -61 0 -9 -9 -30 -20 -47 -11 -16 -20 -44 -20 -61 0 -17 -9 -43 -20 -57 -11 -14 -20 -29 -20 -33 0 -4 -7 -15 -16 -25 -9 -10 -19 -33 -23 -51 -9 -44 -47 -52 -57 -12 -4 14 -22 49 -40 78 -19 28 -34 58 -34 66 0 9 -9 33 -20 55 -11 22 -20 47 -20 56 0 9 -7 22 -15 29 -8 7 -15 25 -15 39 0 17 -10 36 -25 49 -14 12 -25 33 -25 46 0 13 -6 29 -14 35 -8 7 -18 27 -22 44 -8 41 -38 100 -58 116 -9 8 -16 24 -16 37 0 13 -8 31 -19 41 -10 10 -22 33 -26 52 -4 18 -22 59 -40 90 -18 31 -36 67 -40 81 -4 14 -13 32 -20 40 -8 8 -17 29 -21 45 -8 32 -27 67 -55 100 -9 11 -20 34 -23 50 -4 17 -13 37 -20 45 -7 8 -18 33 -24 56 -7 22 -25 61 -42 85 -16 24 -30 48 -30 53 0 5 -9 27 -19 50 -11 23 -22 53 -26 69 l-5 27 -123 1 c-67 0 -145 3 -173 5 -28 2 -54 1 -58 -3z"/> </g> </svg>